# xmcd
#
# Track frame offsets: 
#        150
#        11168
#        21244
#        34350
#        46440
#        58155
#        69502
#        79838
#        92067
#        102198
#        118415
#        131948
#        143011
#        157403
#        168719
#
# Disc length: 2373 seconds
#
# Revision: 6
# Processed by: cddbd v1.5.2PL0 Copyright (c) Steve Scherf et al.
# Submitted via: ExactAudioCopy v0.99pb5
#
DISCID=e309430f
DTITLE=Various Artist - Classic Country - TL 626-16 - 1961 - 1965 - CD 2
DYEAR=2001
DGENRE=Country
TTITLE0=Patsy Cline - Leavin' on your mind
TTITLE1=Buck Owens - I've got a tiger by the tail
TTITLE2=George Jones - Things have gone to pieces
TTITLE3=Del Reeves - Girl on the billboard
TTITLE4=Porter Wagoner - Misery loves company
TTITLE5=Roy Drusky - Three hearts in a tangle
TTITLE6=Billy Walker - Charlie's shoes
TTITLE7=Stonewall Jackson - A wound time can't erase
TTITLE8=Sonny James - You're the only world I know
TTITLE9=Johnny Bond - 10 little bottles
TTITLE10=Ray Price - The other woman
TTITLE11=Connie Smith - Then and only then
TTITLE12=Tex Ritter - I dreamed of a hillbilly heaven
TTITLE13=Marty Robbins - Begging to you
TTITLE14=Chet Atkins - Yakety axe
EXTD=
EXTT0=
EXTT1=
EXTT2=
EXTT3=
EXTT4=
EXTT5=
EXTT6=
EXTT7=
EXTT8=
EXTT9=
EXTT10=
EXTT11=
EXTT12=
EXTT13=
EXTT14=
PLAYORDER=
